<?xml version="1.0" encoding="UTF-8" standalone="no"?>
<!DOCTYPE svg PUBLIC "-//W3C//DTD SVG 1.1//EN" "http://www.w3.org/Graphics/SVG/1.1/DTD/svg11.dtd">
<svg width="100%" height="100%" viewBox="0 0 512 512" version="1.1" xmlns="http://www.w3.org/2000/svg" xmlns:xlink="http://www.w3.org/1999/xlink" xml:space="preserve" xmlns:serif="http://www.serif.com/" style="fill-rule:evenodd;clip-rule:evenodd;stroke-linecap:round;stroke-linejoin:round;stroke-miterlimit:1.5;">
    <g id="Background" transform="matrix(1.90769,0,0,2.485,-334.385,-339.9)">
        <path d="M440,179.92C440,157.887 416.7,140 388,140L232,140C203.3,140 180,157.887 180,179.92L180,300.08C180,322.113 203.3,340 232,340L388,340C416.7,340 440,322.113 440,300.08L440,179.92Z" style="fill:rgb(0,107,212);stroke:rgb(40,40,40);stroke-width:0.45px;"/>
    </g>
    <g id="Display" transform="matrix(1.35714,0,0,0.666667,-123,23.3333)">
        <path d="M420,76C420,72.689 418.679,70 417.053,70L142.947,70C141.321,70 140,72.689 140,76L140,184C140,187.311 141.321,190 142.947,190L417.053,190C418.679,190 420,187.311 420,184L420,76Z" style="fill:white;stroke:rgb(40,40,40);stroke-width:0.94px;"/>
    </g>
    <g id="Equals-Button" serif:id="Equals Button" transform="matrix(0.285714,0,0,2.16667,327,30.8333)">
        <path d="M420,71.846C420,70.827 413.727,70 406,70L154,70C146.273,70 140,70.827 140,71.846L140,188.154C140,189.173 146.273,190 154,190L406,190C413.727,190 420,189.173 420,188.154L420,71.846Z" style="fill:white;stroke:rgb(40,40,40);stroke-width:0.65px;"/>
    </g>
    <g id="_1" serif:id="1" transform="matrix(0.232143,0,0,0.541667,34.5,144.583)">
        <path d="M420,76C420,72.689 413.727,70 406,70L154,70C146.273,70 140,72.689 140,76L140,184C140,187.311 146.273,190 154,190L406,190C413.727,190 420,187.311 420,184L420,76Z" style="fill:white;stroke:rgb(40,40,40);stroke-width:2.4px;"/>
    </g>
    <g id="_2" serif:id="2" transform="matrix(0.232143,0,0,0.541667,134.5,144.583)">
        <path d="M420,76C420,72.689 413.727,70 406,70L154,70C146.273,70 140,72.689 140,76L140,184C140,187.311 146.273,190 154,190L406,190C413.727,190 420,187.311 420,184L420,76Z" style="fill:white;stroke:rgb(40,40,40);stroke-width:2.4px;"/>
    </g>
    <g id="_3" serif:id="3" transform="matrix(0.232143,0,0,0.541667,234.5,144.583)">
        <path d="M420,76C420,72.689 413.727,70 406,70L154,70C146.273,70 140,72.689 140,76L140,184C140,187.311 146.273,190 154,190L406,190C413.727,190 420,187.311 420,184L420,76Z" style="fill:white;stroke:rgb(40,40,40);stroke-width:2.4px;"/>
    </g>
    <g id="_4" serif:id="4" transform="matrix(0.232143,0,0,0.541667,34.5,242.083)">
        <path d="M420,76C420,72.689 413.727,70 406,70L154,70C146.273,70 140,72.689 140,76L140,184C140,187.311 146.273,190 154,190L406,190C413.727,190 420,187.311 420,184L420,76Z" style="fill:white;stroke:rgb(40,40,40);stroke-width:2.4px;"/>
    </g>
    <g id="_5" serif:id="5" transform="matrix(0.232143,0,0,0.541667,134.5,242.083)">
        <path d="M420,76C420,72.689 413.727,70 406,70L154,70C146.273,70 140,72.689 140,76L140,184C140,187.311 146.273,190 154,190L406,190C413.727,190 420,187.311 420,184L420,76Z" style="fill:white;stroke:rgb(40,40,40);stroke-width:2.4px;"/>
    </g>
    <g id="_6" serif:id="6" transform="matrix(0.232143,0,0,0.541667,234.5,242.083)">
        <path d="M420,76C420,72.689 413.727,70 406,70L154,70C146.273,70 140,72.689 140,76L140,184C140,187.311 146.273,190 154,190L406,190C413.727,190 420,187.311 420,184L420,76Z" style="fill:white;stroke:rgb(40,40,40);stroke-width:2.4px;"/>
    </g>
    <g id="_7" serif:id="7" transform="matrix(0.232143,0,0,0.541667,34.5,339.583)">
        <path d="M420,76C420,72.689 413.727,70 406,70L154,70C146.273,70 140,72.689 140,76L140,184C140,187.311 146.273,190 154,190L406,190C413.727,190 420,187.311 420,184L420,76Z" style="fill:white;stroke:rgb(40,40,40);stroke-width:2.4px;"/>
    </g>
    <g id="_8" serif:id="8" transform="matrix(0.232143,0,0,0.541667,134.5,339.583)">
        <path d="M420,76C420,72.689 413.727,70 406,70L154,70C146.273,70 140,72.689 140,76L140,184C140,187.311 146.273,190 154,190L406,190C413.727,190 420,187.311 420,184L420,76Z" style="fill:white;stroke:rgb(40,40,40);stroke-width:2.4px;"/>
    </g>
    <g id="_9" serif:id="9" transform="matrix(0.232143,0,0,0.541667,234.5,339.583)">
        <path d="M420,76C420,72.689 413.727,70 406,70L154,70C146.273,70 140,72.689 140,76L140,184C140,187.311 146.273,190 154,190L406,190C413.727,190 420,187.311 420,184L420,76Z" style="fill:white;stroke:rgb(40,40,40);stroke-width:2.4px;"/>
    </g>
</svg>
